<?xml version="1.0" standalone="no"?>
<!DOCTYPE svg PUBLIC "-//W3C//DTD SVG 20010904//EN"
 "http://www.w3.org/TR/2001/REC-SVG-20010904/DTD/svg10.dtd">
<svg version="1.0" xmlns="http://www.w3.org/2000/svg"
 width="296.000000pt" height="137.000000pt" viewBox="0 0 296.000000 137.000000"
 preserveAspectRatio="xMidYMid meet">

<g transform="translate(0.000000,137.000000) scale(0.100000,-0.100000)"
fill="#000000" stroke="none">
<path d="M490 1055 l0 -285 65 0 65 0 0 285 0 285 -65 0 -65 0 0 -285z"/>
<path d="M60 1045 l0 -275 65 0 65 0 0 110 0 110 85 0 85 0 0 50 0 50 -85 0
-85 0 0 60 0 60 110 0 110 0 0 55 0 55 -175 0 -175 0 0 -275z"/>
<path d="M818 1200 c-84 -25 -131 -103 -131 -214 0 -134 70 -216 183 -216 59
0 86 11 117 48 l23 27 0 -37 0 -38 65 0 65 0 0 215 0 215 -65 0 -65 0 0 -32 0
-32 -28 27 c-43 42 -104 55 -164 37z m157 -132 c51 -45 42 -144 -16 -173 -43
-23 -77 -18 -110 14 -23 24 -29 38 -29 74 0 93 89 141 155 85z"/>
<path d="M1445 1195 c-22 -8 -48 -24 -57 -36 l-18 -21 0 31 0 31 -65 0 -65 0
0 -215 0 -215 65 0 65 0 0 134 c0 120 2 136 21 160 26 32 84 36 120 7 23 -18
24 -26 27 -160 l4 -141 64 0 64 0 0 134 c0 120 2 136 21 160 26 32 84 36 120
7 23 -18 24 -26 27 -160 l4 -141 65 0 65 0 -4 158 c-3 128 -7 164 -22 194 -46
95 -185 114 -264 37 l-32 -31 -28 30 c-26 27 -85 52 -122 52 -8 -1 -33 -7 -55
-15z"/>
<path d="M2176 1195 c-94 -33 -139 -100 -139 -205 0 -87 29 -150 86 -188 32
-21 55 -28 113 -30 96 -5 153 20 195 86 16 25 29 50 29 54 0 4 -30 8 -66 8
-56 0 -71 -4 -96 -25 -33 -28 -54 -31 -92 -14 -20 9 -46 52 -46 75 0 2 67 4
149 4 171 0 169 -1 150 88 -25 123 -158 192 -283 147z m134 -115 c11 -11 20
-29 20 -40 0 -18 -7 -20 -85 -20 l-85 0 11 28 c5 15 17 33 26 40 26 19 90 15
113 -8z"/>
<path d="M2615 1196 c-60 -23 -85 -57 -85 -117 0 -42 5 -55 28 -79 16 -16 49
-33 73 -40 89 -22 122 -35 132 -51 31 -50 -63 -72 -101 -24 -17 22 -28 25 -82
25 -59 0 -61 -1 -54 -22 24 -78 90 -118 194 -118 111 0 170 43 170 125 0 74
-32 98 -181 139 -66 18 -82 41 -48 69 26 21 55 15 86 -19 18 -20 32 -24 78
-24 44 0 55 3 55 16 0 28 -39 82 -74 104 -45 27 -139 35 -191 16z"/>
<path d="M135 647 c-129 -73 -121 -307 12 -376 28 -14 108 -14 136 0 12 6 32
21 45 32 l22 20 0 -35 c0 -48 -18 -96 -40 -108 -35 -19 -89 -12 -114 15 -20
21 -32 25 -81 25 l-57 0 7 -27 c20 -80 94 -127 200 -128 87 0 141 27 176 89
23 39 24 50 27 274 l3 232 -60 0 c-58 0 -61 -1 -61 -25 0 -27 -14 -34 -23 -12
-8 21 -71 47 -114 47 -21 0 -56 -10 -78 -23z m178 -107 c75 -59 14 -197 -77
-174 -65 16 -91 120 -41 169 30 31 82 33 118 5z"/>
<path d="M625 647 c-129 -73 -121 -307 12 -376 28 -14 108 -14 136 0 12 6 32
21 45 32 l22 20 0 -31 0 -32 60 0 60 0 0 200 0 200 -60 0 c-57 0 -60 -1 -60
-25 0 -27 -14 -34 -23 -12 -8 21 -71 47 -114 47 -21 0 -56 -10 -78 -23z m178
-107 c75 -59 14 -197 -77 -174 -65 16 -91 120 -41 169 30 31 82 33 118 5z"/>
<path d="M1235 658 c-11 -6 -30 -20 -42 -31 l-23 -20 0 26 c0 27 -1 27 -65 27
l-65 0 0 -200 0 -200 65 0 65 0 0 130 c0 117 2 132 20 150 26 26 80 26 111 1
22 -17 23 -27 27 -150 l4 -131 59 0 59 0 0 128 c0 121 1 130 23 150 29 27 77
28 108 3 23 -18 24 -27 28 -150 l3 -131 59 0 59 0 0 126 c0 155 -11 204 -56
244 -62 54 -149 52 -212 -4 l-37 -34 -19 25 c-34 46 -124 67 -171 41z"/>
<path d="M1917 655 c-83 -29 -121 -89 -121 -190 0 -128 62 -196 185 -203 89
-5 148 21 184 82 14 24 25 46 25 49 0 4 -27 7 -61 7 -51 0 -66 -4 -91 -25 -16
-14 -38 -25 -48 -25 -24 0 -66 38 -75 67 -6 22 -6 22 137 25 l143 3 -2 48 c-2
26 -9 60 -17 75 -45 86 -157 124 -259 87z m133 -105 c11 -11 20 -29 20 -40 0
-18 -7 -20 -73 -20 -41 0 -76 3 -80 6 -8 9 19 61 35 67 31 13 79 6 98 -13z"/>
<path d="M2444 642 c-74 -26 -150 -92 -128 -111 8 -7 152 -101 213 -139 15 -9
8 2 -16 25 -24 22 -43 49 -43 59 0 51 61 84 90 49 12 -14 15 -14 30 0 23 21
57 19 70 -4 20 -39 12 -69 -29 -102 -57 -46 -57 -54 0 -93 50 -34 52 -34 92
-20 53 19 103 58 122 94 20 38 19 110 -1 138 -22 32 -123 98 -169 111 -60 16
-173 13 -231 -7z"/>
</g>
</svg>
